<svg width="242" height="522" viewBox="0 0 242 522" fill="none" xmlns="http://www.w3.org/2000/svg">
<mask id="mask0_73_551" style="mask-type:alpha" maskUnits="userSpaceOnUse" x="0" y="0" width="242" height="522">
<path fill-rule="evenodd" clip-rule="evenodd" d="M68.267 19.2657H173.244C181.78 19.2657 188.7 12.3653 188.7 3.05041C188.788 1.40398 190.108 0.0871255 191.755 0.00415092L217.037 0C230.554 0 241.51 10.9257 241.51 24.4033V497.056C241.51 510.534 230.554 521.459 217.037 521.459H24.4731C10.957 521.459 0 510.534 0 497.056V24.4033C0 10.9257 10.957 0 24.4731 0H49.7512C51.4023 0.0871255 52.7229 1.40398 52.8061 3.04626C52.8103 12.3653 59.7305 19.2657 68.267 19.2657Z" fill="white"/>
</mask>
<g mask="url(#mask0_73_551)">
<path fill-rule="evenodd" clip-rule="evenodd" d="M0 0H241.51V521.459H0V0Z" fill="#FFDCB3"/>
</g>
<path d="M117.018 221.518C116.719 221.827 116.31 222 115.885 222C115.461 222 115.052 221.827 114.752 221.518L105.704 212.235C104.765 211.272 104.765 209.71 105.704 208.748L106.837 207.586C107.776 206.623 109.297 206.623 110.236 207.586L115.885 213.381L131.15 197.723C132.089 196.759 133.611 196.759 134.549 197.723L135.682 198.885C136.621 199.848 136.621 201.41 135.682 202.372L117.018 221.518Z" fill="#0E5A4C"/>
<path d="M68.216 254.6C68.216 257.16 67.416 259.248 65.816 260.864C64.216 262.48 62.152 263.288 59.624 263.288C57.224 263.288 55.2 262.504 53.552 260.936C51.92 259.352 51.104 257.24 51.104 254.6C51.104 251.96 51.936 249.856 53.6 248.288C55.264 246.704 57.288 245.912 59.672 245.912C62.056 245.912 64.072 246.704 65.72 248.288C67.384 249.856 68.216 251.96 68.216 254.6ZM55.568 250.16C54.48 251.232 53.936 252.712 53.936 254.6C53.936 256.488 54.48 257.968 55.568 259.04C56.656 260.112 58.024 260.648 59.672 260.648C61.32 260.648 62.688 260.112 63.776 259.04C64.88 257.968 65.432 256.488 65.432 254.6C65.432 252.744 64.88 251.272 63.776 250.184C62.688 249.08 61.328 248.528 59.696 248.528C58.048 248.528 56.672 249.072 55.568 250.16ZM76.1285 262.976H73.5845V253.712H69.8645V251.432H79.8725V253.712H76.1285V262.976ZM82.1259 251.432H92.7339V263H90.1419V253.736H84.7659V263H82.1259V251.432ZM98.7575 253.304C99.3655 251.848 100.686 251.12 102.718 251.12C104.35 251.12 105.63 251.704 106.557 252.872C107.486 254.04 107.95 255.464 107.95 257.144C107.95 258.968 107.382 260.44 106.246 261.56C105.11 262.68 103.75 263.2 102.166 263.12C101.142 263.072 100.166 262.768 99.2375 262.208V268.952H96.6215V255.128C96.6215 254.264 96.5735 253.744 96.4775 253.568C96.3335 253.28 95.9735 253.136 95.3975 253.136L95.3735 251.336C97.6295 250.888 98.7575 251.544 98.7575 253.304ZM99.1895 256.664V259.904C100.15 260.576 101.134 260.888 102.142 260.84C103.054 260.808 103.806 260.472 104.398 259.832C105.006 259.176 105.31 258.28 105.31 257.144C105.31 256.12 105.038 255.248 104.494 254.528C103.95 253.808 103.182 253.448 102.19 253.448C101.31 253.448 100.59 253.76 100.03 254.384C99.4695 255.008 99.1895 255.768 99.1895 256.664ZM118.138 261.056C117.77 261.776 117.194 262.32 116.41 262.688C115.626 263.04 114.786 263.216 113.89 263.216C112.77 263.216 111.794 262.888 110.962 262.232C110.146 261.576 109.738 260.704 109.738 259.616C109.706 258.288 110.106 257.28 110.938 256.592C111.786 255.888 112.882 255.536 114.226 255.536C115.49 255.536 116.634 255.824 117.658 256.4V255.248C117.658 254.544 117.378 254.016 116.818 253.664C116.274 253.312 115.618 253.144 114.85 253.16C114.098 253.176 113.37 253.256 112.666 253.4C111.962 253.544 111.41 253.72 111.01 253.928L110.626 252.056C111.81 251.448 113.234 251.144 114.898 251.144C116.466 251.144 117.738 251.472 118.714 252.128C119.706 252.768 120.202 253.832 120.202 255.32V259.88C120.202 260.248 120.202 260.504 120.202 260.648C120.218 260.776 120.258 260.944 120.322 261.152C120.402 261.344 120.522 261.464 120.682 261.512C120.858 261.56 121.098 261.568 121.402 261.536L121.45 263.024C120.826 263.12 120.274 263.168 119.794 263.168C119.314 263.168 118.922 263 118.618 262.664C118.314 262.312 118.154 261.776 118.138 261.056ZM117.658 259.04V258.08C116.714 257.52 115.714 257.256 114.658 257.288C113.986 257.304 113.426 257.504 112.978 257.888C112.53 258.272 112.306 258.8 112.306 259.472C112.306 260.016 112.514 260.432 112.93 260.72C113.346 261.008 113.842 261.152 114.418 261.152C115.186 261.152 115.882 260.976 116.506 260.624C117.146 260.256 117.53 259.728 117.658 259.04ZM133.254 254.456C133.254 255.64 132.726 256.416 131.67 256.784C132.374 256.976 132.918 257.336 133.302 257.864C133.686 258.392 133.878 259.008 133.878 259.712C133.878 260.288 133.774 260.784 133.566 261.2C133.358 261.616 133.094 261.944 132.774 262.184C132.47 262.408 132.078 262.592 131.598 262.736C131.134 262.864 130.694 262.944 130.278 262.976C129.878 263.008 129.414 263.024 128.886 263.024H123.798V251.408H128.238C128.766 251.408 129.214 251.424 129.582 251.456C129.966 251.472 130.406 251.536 130.902 251.648C131.414 251.76 131.822 251.92 132.126 252.128C132.43 252.336 132.694 252.64 132.918 253.04C133.142 253.424 133.254 253.896 133.254 254.456ZM126.342 261.008H128.622C129.022 261.008 129.334 261 129.558 260.984C129.782 260.968 130.054 260.92 130.374 260.84C130.694 260.744 130.934 260.584 131.094 260.36C131.254 260.12 131.334 259.816 131.334 259.448C131.334 259.096 131.246 258.808 131.07 258.584C130.91 258.344 130.67 258.184 130.35 258.104C130.03 258.008 129.734 257.944 129.462 257.912C129.206 257.88 128.886 257.864 128.502 257.864H126.342V261.008ZM126.342 256.088H128.382C129.918 256.088 130.686 255.632 130.686 254.72C130.686 253.792 129.918 253.328 128.382 253.328H126.342V256.088ZM144.782 253.736H140.798L140.246 258.896C140.07 260.736 139.646 261.944 138.974 262.52C138.302 263.096 137.054 263.256 135.23 263L135.278 261.08C136.206 261.208 136.806 261.104 137.078 260.768C137.366 260.432 137.566 259.776 137.678 258.8L138.542 251.432H147.35V263H144.782V253.736ZM156.031 251.168C158.031 251.168 159.479 251.768 160.375 252.968C161.271 254.168 161.527 255.744 161.143 257.696H152.599C152.599 258.72 152.951 259.536 153.655 260.144C154.375 260.752 155.279 261.056 156.367 261.056C157.903 261.136 159.303 260.896 160.567 260.336L160.903 262.28C159.431 262.936 157.975 263.264 156.535 263.264C154.599 263.296 153.015 262.736 151.783 261.584C150.551 260.432 149.967 258.896 150.031 256.976C150.063 255.136 150.655 253.712 151.807 252.704C152.959 251.68 154.367 251.168 156.031 251.168ZM156.007 253.184C154.119 253.184 152.999 254.072 152.647 255.848H159.031C159.063 255.016 158.783 254.368 158.191 253.904C157.615 253.424 156.887 253.184 156.007 253.184ZM172.082 251.432H174.626V263H172.082V258.152H166.49V263H163.97V251.432H166.49V255.872H172.082V251.432ZM189.528 257.168C189.528 259.072 188.92 260.56 187.704 261.632C186.488 262.688 185.056 263.216 183.408 263.216C181.76 263.216 180.328 262.688 179.112 261.632C177.912 260.56 177.312 259.072 177.312 257.168C177.312 255.28 177.904 253.816 179.088 252.776C180.272 251.72 181.68 251.176 183.312 251.144C184.384 251.128 185.376 251.336 186.288 251.768C187.216 252.184 187.984 252.864 188.592 253.808C189.216 254.752 189.528 255.872 189.528 257.168ZM179.904 257.168C179.904 258.352 180.256 259.28 180.96 259.952C181.664 260.608 182.496 260.928 183.456 260.912C184.4 260.896 185.208 260.56 185.88 259.904C186.568 259.248 186.912 258.336 186.912 257.168C186.912 255.984 186.552 255.064 185.832 254.408C185.112 253.736 184.272 253.416 183.312 253.448C182.368 253.48 181.56 253.824 180.888 254.48C180.232 255.12 179.904 256.016 179.904 257.168Z" fill="#0E5A4C"/>
</svg>
