<svg width="24" height="25" viewBox="0 0 24 25" fill="none" xmlns="http://www.w3.org/2000/svg">
<path fill-rule="evenodd" clip-rule="evenodd" d="M12.001 0.813477C8.81442 0.813477 8.41451 0.827338 7.16294 0.884C5.91382 0.940904 5.06118 1.13764 4.31513 1.4263C3.54341 1.72444 2.88878 2.12326 2.2366 2.77231C1.58393 3.42112 1.18303 4.07237 0.882364 4.83985C0.591472 5.58229 0.39347 6.43075 0.337247 7.67293C0.281268 8.91802 0.266602 9.31611 0.266602 12.4862C0.266602 15.6564 0.280779 16.053 0.337491 17.2981C0.394936 18.5408 0.592694 19.389 0.882608 20.1312C1.18254 20.8989 1.58344 21.5501 2.23587 22.199C2.88781 22.8483 3.54244 23.248 4.31367 23.5462C5.06021 23.8348 5.91308 24.0316 7.16196 24.0885C8.41353 24.1451 8.8132 24.159 11.9996 24.159C15.1864 24.159 15.5851 24.1451 16.8367 24.0885C18.0858 24.0316 18.9394 23.8348 19.686 23.5462C20.4574 23.248 21.1111 22.8483 21.763 22.199C22.4157 21.5501 22.8166 20.8989 23.1173 20.1314C23.4057 19.389 23.6037 18.5405 23.6624 17.2983C23.7186 16.0532 23.7333 15.6564 23.7333 12.4862C23.7333 9.31611 23.7186 8.91827 23.6624 7.67317C23.6037 6.43051 23.4057 5.58229 23.1173 4.84009C22.8166 4.07237 22.4157 3.42112 21.763 2.77231C21.1104 2.12301 20.4577 1.7242 19.6852 1.4263C18.9372 1.13764 18.0841 0.940904 16.835 0.884C15.5834 0.827338 15.185 0.813477 11.9974 0.813477H12.001ZM10.9486 2.91729C11.261 2.91681 11.6096 2.91729 12.0012 2.91729C15.134 2.91729 15.5053 2.92848 16.7425 2.98441C17.8865 3.03645 18.5074 3.22662 18.921 3.38639C19.4686 3.59796 19.8589 3.85087 20.2694 4.25942C20.68 4.66797 20.9343 5.05706 21.1474 5.60179C21.308 6.01277 21.4994 6.63045 21.5515 7.76854C21.6077 8.99905 21.6199 9.36869 21.6199 12.4839C21.6199 15.599 21.6077 15.9687 21.5515 17.1992C21.4992 18.3373 21.308 18.9549 21.1474 19.3659C20.9347 19.9107 20.68 20.2985 20.2694 20.7068C19.8587 21.1154 19.4688 21.3683 18.921 21.5799C18.5079 21.7404 17.8865 21.93 16.7425 21.9821C15.5056 22.038 15.134 22.0502 12.0012 22.0502C8.86811 22.0502 8.4968 22.038 7.2599 21.9821C6.11589 21.9296 5.49499 21.7394 5.08114 21.5796C4.53358 21.368 4.14246 21.1151 3.73179 20.7066C3.32112 20.298 3.0669 19.9099 2.85374 19.3649C2.69314 18.954 2.50174 18.3363 2.44967 17.1982C2.39345 15.9677 2.3822 15.5981 2.3822 12.4809C2.3822 9.36382 2.39345 8.99613 2.44967 7.76563C2.50198 6.62753 2.69314 6.00985 2.85374 5.59838C3.06641 5.05365 3.32112 4.66456 3.73179 4.25601C4.14246 3.84747 4.53358 3.59456 5.08114 3.3825C5.49475 3.222 6.11589 3.03232 7.2599 2.98004C8.34231 2.9314 8.76178 2.91681 10.9486 2.91438V2.91729ZM18.2643 4.85523C17.487 4.85523 16.8563 5.48191 16.8563 6.25547C16.8563 7.02879 17.487 7.6562 18.2643 7.6562C19.0417 7.6562 19.6724 7.02879 19.6724 6.25547C19.6724 5.48215 19.0417 4.85474 18.2643 4.85474V4.85523ZM12.0011 6.49204C8.67342 6.49204 5.97546 9.17604 5.97546 12.4865C5.97546 15.7969 8.67342 18.4797 12.0011 18.4797C15.3287 18.4797 18.0257 15.7969 18.0257 12.4865C18.0257 9.17604 15.3285 6.49204 12.0008 6.49204H12.0011ZM12.0012 8.59557C14.1612 8.59557 15.9124 10.3375 15.9124 12.4865C15.9124 14.6353 14.1612 16.3774 12.0012 16.3774C9.84106 16.3774 8.09009 14.6353 8.09009 12.4865C8.09009 10.3375 9.84106 8.59557 12.0012 8.59557Z" fill="white"/>
</svg>
